<svg width="6" height="10" viewBox="0 0 6 10" fill="none" xmlns="http://www.w3.org/2000/svg">
<path d="M5.86294 4.78308L2.04294 0.963081C1.9547 0.87539 1.83534 0.826172 1.71094 0.826172C1.58654 0.826172 1.46718 0.87539 1.37894 0.963081L1.09794 1.24408C1.01001 1.33219 0.96062 1.4516 0.96062 1.57608C0.96062 1.70057 1.01001 1.81997 1.09794 1.90808L4.30494 5.11608L1.09394 8.32608C1.00625 8.41432 0.957031 8.53368 0.957031 8.65808C0.957031 8.78249 1.00625 8.90184 1.09394 8.99008L1.37494 9.27108C1.46318 9.35877 1.58254 9.40799 1.70694 9.40799C1.83134 9.40799 1.9507 9.35877 2.03894 9.27108L5.86294 5.44908C5.95051 5.36037 5.99962 5.24073 5.99962 5.11608C5.99962 4.99143 5.95051 4.87179 5.86294 4.78308Z" fill="#B8B8B8"/>
</svg>
