<svg width="43" height="43" viewBox="0 0 43 43" fill="none" xmlns="http://www.w3.org/2000/svg">
<path d="M6.30011 36.7001C4.29734 34.7087 2.70925 32.34 1.62787 29.731C0.546488 27.1219 -0.00676375 24.3243 6.24044e-05 21.5001C-0.00670856 18.6758 0.546614 15.8783 1.62799 13.2692C2.70937 10.6602 4.29739 8.29143 6.30011 6.30005C8.29135 4.29715 10.66 2.70908 13.2691 1.62769C15.8782 0.5463 18.6758 -0.00692527 21.5001 6.64927e-05C24.3244 -0.00698048 27.1221 0.546175 29.7311 1.62757C32.3402 2.70896 34.7088 4.29711 36.7 6.30005C38.7027 8.29143 40.2908 10.6602 41.3721 13.2692C42.4535 15.8783 43.0068 18.6758 43.0001 21.5001C43.0068 24.3243 42.4535 27.1219 41.3721 29.7309C40.2908 32.3399 38.7027 34.7087 36.7 36.7001C34.7087 38.7028 32.3399 40.2908 29.7309 41.3722C27.1219 42.4536 24.3243 43.0069 21.5001 43.0001C18.6758 43.0069 15.8782 42.4537 13.2691 41.3723C10.66 40.2909 8.29142 38.7029 6.30011 36.7001ZM3.00006 21.5001C3.00562 26.4049 4.95653 31.1072 8.42474 34.5754C11.893 38.0436 16.5953 39.9945 21.5001 40.0001C26.4049 39.9945 31.1072 38.0436 34.5754 34.5754C38.0436 31.1072 39.9945 26.4049 40.0001 21.5001C39.9945 16.5953 38.0436 11.893 34.5754 8.42475C31.1072 4.95653 26.4049 3.00562 21.5001 3.00007C16.5953 3.00562 11.893 4.95653 8.42474 8.42475C4.95653 11.893 3.00562 16.5953 3.00006 21.5001ZM24.539 31.3621L15.33 22.1531C15.2249 22.0482 15.1417 21.9234 15.085 21.7861C15.0284 21.6488 14.9995 21.5016 15.0001 21.3531C14.9996 21.2046 15.0286 21.0574 15.0853 20.9201C15.1419 20.7828 15.225 20.6581 15.33 20.553L24.5471 11.3361C24.652 11.2309 24.7767 11.1477 24.914 11.091C25.0513 11.0344 25.1986 11.0055 25.3471 11.006C25.4957 11.0054 25.6429 11.0342 25.7802 11.0908C25.9175 11.1475 26.0422 11.2308 26.147 11.3361L26.8261 12.014C26.9311 12.1191 27.0142 12.2439 27.0709 12.3812C27.1275 12.5185 27.1564 12.6656 27.1561 12.8141C27.1564 12.9626 27.1275 13.1097 27.0709 13.247C27.0142 13.3842 26.9311 13.509 26.8261 13.6141L19.084 21.3561L26.8171 29.0891C27.0289 29.3014 27.1478 29.5891 27.1478 29.889C27.1478 30.189 27.0289 30.4767 26.8171 30.6891L26.1391 31.368C26.0342 31.4732 25.9093 31.5565 25.772 31.6132C25.6347 31.6698 25.4876 31.6986 25.3391 31.6981C25.1901 31.6981 25.0426 31.6684 24.9052 31.6107C24.7678 31.553 24.6433 31.4685 24.539 31.3621Z" fill="#4978E8"/>
</svg>
