<svg width="43" height="43" viewBox="0 0 43 43" fill="none" xmlns="http://www.w3.org/2000/svg">
<path d="M36.6999 6.29895C38.7027 8.29029 40.2907 10.659 41.3721 13.2681C42.4535 15.8771 43.0068 18.6747 42.9999 21.499C43.0067 24.3232 42.4534 27.1208 41.372 29.7298C40.2906 32.3388 38.7026 34.7076 36.6999 36.699C34.7086 38.7019 32.34 40.2899 29.7309 41.3713C27.1218 42.4527 24.3242 43.0059 21.4999 42.999C18.6756 43.006 15.8779 42.4528 13.2689 41.3715C10.6598 40.2901 8.29119 38.7019 6.29999 36.699C4.29726 34.7076 2.70925 32.3388 1.62787 29.7298C0.54649 27.1208 -0.00683212 24.3232 -6.10352e-05 21.499C-0.00683212 18.6747 0.54649 15.8772 1.62787 13.2681C2.70925 10.6591 4.29726 8.29032 6.29999 6.29895C8.29133 4.29618 10.6601 2.70821 13.2691 1.62683C15.8781 0.545444 18.6757 -0.00786591 21.4999 -0.00104141C24.3242 -0.00792313 27.1218 0.545319 29.7309 1.62671C32.34 2.70809 34.7086 4.29613 36.6999 6.29895ZM39.9999 21.499C39.9944 16.5942 38.0435 11.8919 34.5753 8.42364C31.107 4.95542 26.4047 3.00452 21.4999 2.99896C16.5951 3.00452 11.8928 4.95542 8.42462 8.42364C4.9564 11.8919 3.0055 16.5942 2.99994 21.499C3.0055 26.4038 4.9564 31.1061 8.42462 34.5743C11.8928 38.0425 16.5951 39.9934 21.4999 39.999C26.4047 39.9934 31.107 38.0425 34.5753 34.5743C38.0435 31.1061 39.9944 26.4038 39.9999 21.499ZM18.461 11.637L27.67 20.8459C27.7751 20.9509 27.8583 21.0756 27.915 21.2129C27.9716 21.3503 28.0005 21.4974 27.9999 21.6459C28.0004 21.7944 27.9714 21.9416 27.9147 22.0789C27.8581 22.2162 27.775 22.341 27.67 22.446L18.4529 31.663C18.348 31.7681 18.2233 31.8514 18.086 31.908C17.9487 31.9647 17.8014 31.9936 17.6529 31.993C17.5043 31.9937 17.3571 31.9648 17.2198 31.9082C17.0825 31.8515 16.9578 31.7682 16.853 31.663L16.1739 30.985C16.0689 30.8799 15.9858 30.7551 15.9291 30.6179C15.8725 30.4806 15.8436 30.3334 15.8439 30.1849C15.8436 30.0364 15.8725 29.8894 15.9291 29.7521C15.9858 29.6148 16.0689 29.49 16.1739 29.3849L23.916 21.6429L16.1829 13.91C15.9711 13.6976 15.8522 13.4099 15.8522 13.11C15.8522 12.8101 15.9711 12.5223 16.1829 12.3099L16.8609 11.631C16.9658 11.5258 17.0907 11.4425 17.228 11.3859C17.3653 11.3292 17.5124 11.3004 17.6609 11.301C17.8099 11.3009 17.9574 11.3307 18.0948 11.3884C18.2322 11.4461 18.3567 11.5306 18.461 11.637Z" fill="#4978E8"/>
</svg>
