<svg width="129" height="45" viewBox="0 0 129 45" fill="none" xmlns="http://www.w3.org/2000/svg">
<path d="M0.945312 16.5469V15C1.1224 15.1562 1.33333 15.2969 1.57812 15.4219C1.82812 15.5469 2.08854 15.6536 2.35938 15.7422C2.63542 15.8255 2.91146 15.8906 3.1875 15.9375C3.46354 15.9844 3.71875 16.0078 3.95312 16.0078C4.76042 16.0078 5.36198 15.8594 5.75781 15.5625C6.15885 15.2604 6.35938 14.8281 6.35938 14.2656C6.35938 13.9635 6.29167 13.7005 6.15625 13.4766C6.02604 13.2526 5.84375 13.0495 5.60938 12.8672C5.375 12.6797 5.09635 12.5026 4.77344 12.3359C4.45573 12.1641 4.11198 11.9844 3.74219 11.7969C3.35156 11.599 2.98698 11.3984 2.64844 11.1953C2.3099 10.9922 2.01562 10.7682 1.76562 10.5234C1.51562 10.2786 1.31771 10.0026 1.17188 9.69531C1.03125 9.38281 0.960938 9.01823 0.960938 8.60156C0.960938 8.09115 1.07292 7.64844 1.29688 7.27344C1.52083 6.89323 1.8151 6.58073 2.17969 6.33594C2.54427 6.09115 2.95833 5.90885 3.42188 5.78906C3.89062 5.66927 4.36719 5.60938 4.85156 5.60938C5.95573 5.60938 6.76042 5.74219 7.26562 6.00781V7.48438C6.60417 7.02604 5.75521 6.79688 4.71875 6.79688C4.43229 6.79688 4.14583 6.82812 3.85938 6.89062C3.57292 6.94792 3.31771 7.04427 3.09375 7.17969C2.86979 7.3151 2.6875 7.48958 2.54688 7.70312C2.40625 7.91667 2.33594 8.17708 2.33594 8.48438C2.33594 8.77083 2.38802 9.01823 2.49219 9.22656C2.60156 9.4349 2.76042 9.625 2.96875 9.79688C3.17708 9.96875 3.42969 10.1354 3.72656 10.2969C4.02865 10.4583 4.375 10.6354 4.76562 10.8281C5.16667 11.026 5.54688 11.2344 5.90625 11.4531C6.26562 11.6719 6.58073 11.9141 6.85156 12.1797C7.1224 12.4453 7.33594 12.7396 7.49219 13.0625C7.65365 13.3854 7.73438 13.7552 7.73438 14.1719C7.73438 14.724 7.625 15.1927 7.40625 15.5781C7.19271 15.9583 6.90104 16.2682 6.53125 16.5078C6.16667 16.7474 5.74479 16.9193 5.26562 17.0234C4.78646 17.1328 4.28125 17.1875 3.75 17.1875C3.57292 17.1875 3.35417 17.1719 3.09375 17.1406C2.83333 17.1146 2.56771 17.0729 2.29688 17.0156C2.02604 16.9635 1.76823 16.8984 1.52344 16.8203C1.28385 16.737 1.09115 16.6458 0.945312 16.5469ZM16.2266 13.3203H10.5781C10.599 14.2109 10.8385 14.8984 11.2969 15.3828C11.7552 15.8672 12.3854 16.1094 13.1875 16.1094C14.0885 16.1094 14.9167 15.8125 15.6719 15.2188V16.4219C14.9688 16.9323 14.0391 17.1875 12.8828 17.1875C11.7526 17.1875 10.8646 16.8255 10.2188 16.1016C9.57292 15.3724 9.25 14.349 9.25 13.0312C9.25 11.7865 9.60156 10.7734 10.3047 9.99219C11.013 9.20573 11.8906 8.8125 12.9375 8.8125C13.9844 8.8125 14.7943 9.15104 15.3672 9.82812C15.9401 10.5052 16.2266 11.4453 16.2266 12.6484V13.3203ZM14.9141 12.2344C14.9089 11.4948 14.7292 10.9193 14.375 10.5078C14.026 10.0964 13.5391 9.89062 12.9141 9.89062C12.3099 9.89062 11.7969 10.1068 11.375 10.5391C10.9531 10.9714 10.6927 11.5365 10.5938 12.2344H14.9141ZM19.4531 17H18.1719V5.15625H19.4531V17ZM23.3281 17H22.0469V5.15625H23.3281V17ZM32.3516 13.3203H26.7031C26.724 14.2109 26.9635 14.8984 27.4219 15.3828C27.8802 15.8672 28.5104 16.1094 29.3125 16.1094C30.2135 16.1094 31.0417 15.8125 31.7969 15.2188V16.4219C31.0938 16.9323 30.1641 17.1875 29.0078 17.1875C27.8776 17.1875 26.9896 16.8255 26.3438 16.1016C25.6979 15.3724 25.375 14.349 25.375 13.0312C25.375 11.7865 25.7266 10.7734 26.4297 9.99219C27.138 9.20573 28.0156 8.8125 29.0625 8.8125C30.1094 8.8125 30.9193 9.15104 31.4922 9.82812C32.0651 10.5052 32.3516 11.4453 32.3516 12.6484V13.3203ZM31.0391 12.2344C31.0339 11.4948 30.8542 10.9193 30.5 10.5078C30.151 10.0964 29.6641 9.89062 29.0391 9.89062C28.4349 9.89062 27.9219 10.1068 27.5 10.5391C27.0781 10.9714 26.8177 11.5365 26.7188 12.2344H31.0391ZM38.4688 10.2969C38.2448 10.125 37.9219 10.0391 37.5 10.0391C36.9531 10.0391 36.4948 10.2969 36.125 10.8125C35.7604 11.3281 35.5781 12.0312 35.5781 12.9219V17H34.2969V9H35.5781V10.6484H35.6094C35.7917 10.0859 36.0703 9.64844 36.4453 9.33594C36.8203 9.01823 37.2396 8.85938 37.7031 8.85938C38.0365 8.85938 38.2917 8.89583 38.4688 8.96875V10.2969ZM40.3047 10.5625C40.0651 10.5625 39.8594 10.4766 39.6875 10.3047C39.5208 10.1328 39.4375 9.92708 39.4375 9.6875C39.4375 9.44792 39.5208 9.24479 39.6875 9.07812C39.8594 8.91146 40.0651 8.82812 40.3047 8.82812C40.5495 8.82812 40.7578 8.91146 40.9297 9.07812C41.1016 9.24479 41.1875 9.44792 41.1875 9.6875C41.1875 9.92708 41.1016 10.1328 40.9297 10.3047C40.7578 10.4766 40.5495 10.5625 40.3047 10.5625ZM40.3047 17.1719C40.0651 17.1719 39.8594 17.0859 39.6875 16.9141C39.5208 16.7422 39.4375 16.5365 39.4375 16.2969C39.4375 16.0573 39.5208 15.8516 39.6875 15.6797C39.8594 15.5026 40.0651 15.4141 40.3047 15.4141C40.5495 15.4141 40.7578 15.5026 40.9297 15.6797C41.1016 15.8516 41.1875 16.0573 41.1875 16.2969C41.1875 16.5365 41.1016 16.7422 40.9297 16.9141C40.7578 17.0859 40.5495 17.1719 40.3047 17.1719Z" fill="#707070"/>
<path d="M47.3672 16.5469V15C47.5443 15.1562 47.7552 15.2969 48 15.4219C48.25 15.5469 48.5104 15.6536 48.7812 15.7422C49.0573 15.8255 49.3333 15.8906 49.6094 15.9375C49.8854 15.9844 50.1406 16.0078 50.375 16.0078C51.1823 16.0078 51.7839 15.8594 52.1797 15.5625C52.5807 15.2604 52.7812 14.8281 52.7812 14.2656C52.7812 13.9635 52.7135 13.7005 52.5781 13.4766C52.4479 13.2526 52.2656 13.0495 52.0312 12.8672C51.7969 12.6797 51.5182 12.5026 51.1953 12.3359C50.8776 12.1641 50.5339 11.9844 50.1641 11.7969C49.7734 11.599 49.4089 11.3984 49.0703 11.1953C48.7318 10.9922 48.4375 10.7682 48.1875 10.5234C47.9375 10.2786 47.7396 10.0026 47.5938 9.69531C47.4531 9.38281 47.3828 9.01823 47.3828 8.60156C47.3828 8.09115 47.4948 7.64844 47.7188 7.27344C47.9427 6.89323 48.237 6.58073 48.6016 6.33594C48.9661 6.09115 49.3802 5.90885 49.8438 5.78906C50.3125 5.66927 50.7891 5.60938 51.2734 5.60938C52.3776 5.60938 53.1823 5.74219 53.6875 6.00781V7.48438C53.026 7.02604 52.1771 6.79688 51.1406 6.79688C50.8542 6.79688 50.5677 6.82812 50.2812 6.89062C49.9948 6.94792 49.7396 7.04427 49.5156 7.17969C49.2917 7.3151 49.1094 7.48958 48.9688 7.70312C48.8281 7.91667 48.7578 8.17708 48.7578 8.48438C48.7578 8.77083 48.8099 9.01823 48.9141 9.22656C49.0234 9.4349 49.1823 9.625 49.3906 9.79688C49.599 9.96875 49.8516 10.1354 50.1484 10.2969C50.4505 10.4583 50.7969 10.6354 51.1875 10.8281C51.5885 11.026 51.9688 11.2344 52.3281 11.4531C52.6875 11.6719 53.0026 11.9141 53.2734 12.1797C53.5443 12.4453 53.7578 12.7396 53.9141 13.0625C54.0755 13.3854 54.1562 13.7552 54.1562 14.1719C54.1562 14.724 54.0469 15.1927 53.8281 15.5781C53.6146 15.9583 53.3229 16.2682 52.9531 16.5078C52.5885 16.7474 52.1667 16.9193 51.6875 17.0234C51.2083 17.1328 50.7031 17.1875 50.1719 17.1875C49.9948 17.1875 49.776 17.1719 49.5156 17.1406C49.2552 17.1146 48.9896 17.0729 48.7188 17.0156C48.4479 16.9635 48.1901 16.8984 47.9453 16.8203C47.7057 16.737 47.513 16.6458 47.3672 16.5469ZM62.6484 13.3203H57C57.0208 14.2109 57.2604 14.8984 57.7188 15.3828C58.1771 15.8672 58.8073 16.1094 59.6094 16.1094C60.5104 16.1094 61.3385 15.8125 62.0938 15.2188V16.4219C61.3906 16.9323 60.4609 17.1875 59.3047 17.1875C58.1745 17.1875 57.2865 16.8255 56.6406 16.1016C55.9948 15.3724 55.6719 14.349 55.6719 13.0312C55.6719 11.7865 56.0234 10.7734 56.7266 9.99219C57.4349 9.20573 58.3125 8.8125 59.3594 8.8125C60.4062 8.8125 61.2161 9.15104 61.7891 9.82812C62.362 10.5052 62.6484 11.4453 62.6484 12.6484V13.3203ZM61.3359 12.2344C61.3307 11.4948 61.151 10.9193 60.7969 10.5078C60.4479 10.0964 59.9609 9.89062 59.3359 9.89062C58.7318 9.89062 58.2188 10.1068 57.7969 10.5391C57.375 10.9714 57.1146 11.5365 57.0156 12.2344H61.3359ZM65.875 17H64.5938V5.15625H65.875V17ZM69.75 17H68.4688V5.15625H69.75V17ZM78.7734 13.3203H73.125C73.1458 14.2109 73.3854 14.8984 73.8438 15.3828C74.3021 15.8672 74.9323 16.1094 75.7344 16.1094C76.6354 16.1094 77.4635 15.8125 78.2188 15.2188V16.4219C77.5156 16.9323 76.5859 17.1875 75.4297 17.1875C74.2995 17.1875 73.4115 16.8255 72.7656 16.1016C72.1198 15.3724 71.7969 14.349 71.7969 13.0312C71.7969 11.7865 72.1484 10.7734 72.8516 9.99219C73.5599 9.20573 74.4375 8.8125 75.4844 8.8125C76.5312 8.8125 77.3411 9.15104 77.9141 9.82812C78.487 10.5052 78.7734 11.4453 78.7734 12.6484V13.3203ZM77.4609 12.2344C77.4557 11.4948 77.276 10.9193 76.9219 10.5078C76.5729 10.0964 76.0859 9.89062 75.4609 9.89062C74.8568 9.89062 74.3438 10.1068 73.9219 10.5391C73.5 10.9714 73.2396 11.5365 73.1406 12.2344H77.4609ZM84.8906 10.2969C84.6667 10.125 84.3438 10.0391 83.9219 10.0391C83.375 10.0391 82.9167 10.2969 82.5469 10.8125C82.1823 11.3281 82 12.0312 82 12.9219V17H80.7188V9H82V10.6484H82.0312C82.2135 10.0859 82.4922 9.64844 82.8672 9.33594C83.2422 9.01823 83.6615 8.85938 84.125 8.85938C84.4583 8.85938 84.7135 8.89583 84.8906 8.96875V10.2969ZM97.3125 17H96.0312V12.4375C96.0312 10.7396 95.4115 9.89062 94.1719 9.89062C93.5312 9.89062 93 10.1328 92.5781 10.6172C92.1615 11.0964 91.9531 11.7031 91.9531 12.4375V17H90.6719V9H91.9531V10.3281H91.9844C92.5885 9.31771 93.4635 8.8125 94.6094 8.8125C95.4844 8.8125 96.1536 9.09635 96.6172 9.66406C97.0807 10.2266 97.3125 11.0417 97.3125 12.1094V17ZM105.461 17H104.18V15.75H104.148C103.591 16.7083 102.771 17.1875 101.688 17.1875C100.891 17.1875 100.266 16.9766 99.8125 16.5547C99.3646 16.1328 99.1406 15.5729 99.1406 14.875C99.1406 13.3802 100.021 12.5104 101.781 12.2656L104.18 11.9297C104.18 10.5703 103.63 9.89062 102.531 9.89062C101.568 9.89062 100.698 10.2188 99.9219 10.875V9.5625C100.708 9.0625 101.615 8.8125 102.641 8.8125C104.521 8.8125 105.461 9.80729 105.461 11.7969V17ZM104.18 12.9531L102.25 13.2188C101.656 13.3021 101.208 13.4505 100.906 13.6641C100.604 13.8724 100.453 14.2448 100.453 14.7812C100.453 15.1719 100.591 15.4922 100.867 15.7422C101.148 15.987 101.521 16.1094 101.984 16.1094C102.62 16.1094 103.143 15.888 103.555 15.4453C103.971 14.9974 104.18 14.4323 104.18 13.75V12.9531ZM119.234 17H117.953V12.4062C117.953 11.5208 117.815 10.8802 117.539 10.4844C117.268 10.0885 116.81 9.89062 116.164 9.89062C115.617 9.89062 115.151 10.1406 114.766 10.6406C114.385 11.1406 114.195 11.7396 114.195 12.4375V17H112.914V12.25C112.914 10.6771 112.307 9.89062 111.094 9.89062C110.531 9.89062 110.068 10.1276 109.703 10.6016C109.339 11.0703 109.156 11.6823 109.156 12.4375V17H107.875V9H109.156V10.2656H109.188C109.755 9.29688 110.583 8.8125 111.672 8.8125C112.219 8.8125 112.695 8.96615 113.102 9.27344C113.508 9.57552 113.786 9.97396 113.938 10.4688C114.531 9.36458 115.417 8.8125 116.594 8.8125C118.354 8.8125 119.234 9.89844 119.234 12.0703V17ZM128.086 13.3203H122.438C122.458 14.2109 122.698 14.8984 123.156 15.3828C123.615 15.8672 124.245 16.1094 125.047 16.1094C125.948 16.1094 126.776 15.8125 127.531 15.2188V16.4219C126.828 16.9323 125.898 17.1875 124.742 17.1875C123.612 17.1875 122.724 16.8255 122.078 16.1016C121.432 15.3724 121.109 14.349 121.109 13.0312C121.109 11.7865 121.461 10.7734 122.164 9.99219C122.872 9.20573 123.75 8.8125 124.797 8.8125C125.844 8.8125 126.654 9.15104 127.227 9.82812C127.799 10.5052 128.086 11.4453 128.086 12.6484V13.3203ZM126.773 12.2344C126.768 11.4948 126.589 10.9193 126.234 10.5078C125.885 10.0964 125.398 9.89062 124.773 9.89062C124.169 9.89062 123.656 10.1068 123.234 10.5391C122.812 10.9714 122.552 11.5365 122.453 12.2344H126.773Z" fill="#1D6EBE"/>
<path d="M46.4219 18.8516H128.727V19.7812H46.4219V18.8516Z" fill="#1D6EBE"/>
<path d="M14.761 35.359C14.7135 35.2128 14.6241 35.0836 14.504 34.9876C14.3838 34.8917 14.2381 34.833 14.085 34.819L9.81197 34.431L8.12397 30.478C8.06334 30.3364 7.96246 30.2157 7.83385 30.1308C7.70524 30.046 7.55455 30.0007 7.40047 30.0007C7.2464 30.0007 7.09571 30.046 6.9671 30.1308C6.83848 30.2157 6.73761 30.3364 6.67697 30.478L4.98797 34.431L0.714973 34.819C0.561817 34.8334 0.416221 34.8923 0.296142 34.9885C0.176063 35.0846 0.0867521 35.2138 0.0392246 35.3601C-0.00830304 35.5064 -0.0119688 35.6634 0.0286795 35.8118C0.0693277 35.9602 0.152512 36.0934 0.267974 36.195L3.49997 39.027L2.54797 43.221C2.51359 43.3713 2.52412 43.5285 2.57825 43.6728C2.63239 43.8172 2.72775 43.9425 2.85249 44.0332C2.97723 44.1238 3.12585 44.1758 3.2799 44.1827C3.43394 44.1896 3.58662 44.1511 3.71897 44.072L7.40297 41.872L11.086 44.072C11.2183 44.1511 11.371 44.1896 11.5251 44.1827C11.6791 44.1758 11.8277 44.1238 11.9525 44.0332C12.0772 43.9425 12.1726 43.8172 12.2267 43.6728C12.2808 43.5285 12.2914 43.3713 12.257 43.221L11.3 39.027L14.53 36.195C14.6457 36.0933 14.729 35.9599 14.7697 35.8113C14.8104 35.6628 14.8067 35.5055 14.759 35.359H14.761Z" fill="#F8BA10"/>
<path d="M33.761 35.359C33.7135 35.2128 33.6241 35.0836 33.504 34.9876C33.3838 34.8917 33.2381 34.833 33.085 34.819L28.812 34.431L27.124 30.478C27.0633 30.3364 26.9625 30.2157 26.8339 30.1308C26.7052 30.046 26.5546 30.0007 26.4005 30.0007C26.2464 30.0007 26.0957 30.046 25.9671 30.1308C25.8385 30.2157 25.7376 30.3364 25.677 30.478L23.988 34.431L19.715 34.819C19.5618 34.8334 19.4162 34.8923 19.2961 34.9885C19.1761 35.0846 19.0868 35.2138 19.0392 35.3601C18.9917 35.5064 18.988 35.6634 19.0287 35.8118C19.0693 35.9602 19.1525 36.0934 19.268 36.195L22.5 39.027L21.548 43.221C21.5136 43.3713 21.5241 43.5285 21.5783 43.6728C21.6324 43.8172 21.7278 43.9425 21.8525 44.0332C21.9772 44.1238 22.1259 44.1758 22.2799 44.1827C22.4339 44.1896 22.5866 44.1511 22.719 44.072L26.403 41.872L30.086 44.072C30.2183 44.1511 30.371 44.1896 30.5251 44.1827C30.6791 44.1758 30.8277 44.1238 30.9525 44.0332C31.0772 43.9425 31.1726 43.8172 31.2267 43.6728C31.2808 43.5285 31.2914 43.3713 31.257 43.221L30.3 39.027L33.53 36.195C33.6457 36.0933 33.729 35.9599 33.7697 35.8113C33.8104 35.6628 33.8067 35.5055 33.759 35.359H33.761Z" fill="#F8BA10"/>
<path d="M52.761 35.359C52.7135 35.2128 52.6241 35.0836 52.504 34.9876C52.3838 34.8917 52.2381 34.833 52.085 34.819L47.812 34.431L46.124 30.478C46.0633 30.3364 45.9625 30.2157 45.8339 30.1308C45.7052 30.046 45.5546 30.0007 45.4005 30.0007C45.2464 30.0007 45.0957 30.046 44.9671 30.1308C44.8385 30.2157 44.7376 30.3364 44.677 30.478L42.988 34.431L38.715 34.819C38.5618 34.8334 38.4162 34.8923 38.2961 34.9885C38.1761 35.0846 38.0868 35.2138 38.0392 35.3601C37.9917 35.5064 37.988 35.6634 38.0287 35.8118C38.0693 35.9602 38.1525 36.0934 38.268 36.195L41.5 39.027L40.548 43.221C40.5136 43.3713 40.5241 43.5285 40.5783 43.6728C40.6324 43.8172 40.7278 43.9425 40.8525 44.0332C40.9772 44.1238 41.1259 44.1758 41.2799 44.1827C41.4339 44.1896 41.5866 44.1511 41.719 44.072L45.403 41.872L49.086 44.072C49.2183 44.1511 49.371 44.1896 49.5251 44.1827C49.6791 44.1758 49.8277 44.1238 49.9525 44.0332C50.0772 43.9425 50.1726 43.8172 50.2267 43.6728C50.2808 43.5285 50.2914 43.3713 50.257 43.221L49.3 39.027L52.53 36.195C52.6457 36.0933 52.729 35.9599 52.7697 35.8113C52.8104 35.6628 52.8067 35.5055 52.759 35.359H52.761Z" fill="#F8BA10"/>
<path d="M71.761 35.359C71.7135 35.2128 71.6241 35.0836 71.504 34.9876C71.3838 34.8917 71.2381 34.833 71.085 34.819L66.812 34.431L65.124 30.478C65.0633 30.3364 64.9625 30.2157 64.8339 30.1308C64.7052 30.046 64.5546 30.0007 64.4005 30.0007C64.2464 30.0007 64.0957 30.046 63.9671 30.1308C63.8385 30.2157 63.7376 30.3364 63.677 30.478L61.988 34.431L57.715 34.819C57.5618 34.8334 57.4162 34.8923 57.2961 34.9885C57.1761 35.0846 57.0868 35.2138 57.0392 35.3601C56.9917 35.5064 56.988 35.6634 57.0287 35.8118C57.0693 35.9602 57.1525 36.0934 57.268 36.195L60.5 39.027L59.548 43.221C59.5136 43.3713 59.5241 43.5285 59.5783 43.6728C59.6324 43.8172 59.7278 43.9425 59.8525 44.0332C59.9772 44.1238 60.1259 44.1758 60.2799 44.1827C60.4339 44.1896 60.5866 44.1511 60.719 44.072L64.403 41.872L68.086 44.072C68.2183 44.1511 68.371 44.1896 68.5251 44.1827C68.6791 44.1758 68.8277 44.1238 68.9525 44.0332C69.0772 43.9425 69.1726 43.8172 69.2267 43.6728C69.2808 43.5285 69.2914 43.3713 69.257 43.221L68.3 39.027L71.53 36.195C71.6457 36.0933 71.729 35.9599 71.7697 35.8113C71.8104 35.6628 71.8067 35.5055 71.759 35.359H71.761Z" fill="#F8BA10"/>
<path d="M90.761 35.359C90.7135 35.2128 90.6241 35.0836 90.504 34.9876C90.3838 34.8917 90.2381 34.833 90.085 34.819L85.812 34.431L84.124 30.478C84.0633 30.3364 83.9625 30.2157 83.8339 30.1308C83.7052 30.046 83.5546 30.0007 83.4005 30.0007C83.2464 30.0007 83.0957 30.046 82.9671 30.1308C82.8385 30.2157 82.7376 30.3364 82.677 30.478L80.988 34.431L76.715 34.819C76.5618 34.8334 76.4162 34.8923 76.2961 34.9885C76.1761 35.0846 76.0868 35.2138 76.0392 35.3601C75.9917 35.5064 75.988 35.6634 76.0287 35.8118C76.0693 35.9602 76.1525 36.0934 76.268 36.195L79.5 39.027L78.548 43.221C78.5136 43.3713 78.5241 43.5285 78.5783 43.6728C78.6324 43.8172 78.7278 43.9425 78.8525 44.0332C78.9772 44.1238 79.1259 44.1758 79.2799 44.1827C79.4339 44.1896 79.5866 44.1511 79.719 44.072L83.403 41.872L87.086 44.072C87.2183 44.1511 87.371 44.1896 87.5251 44.1827C87.6791 44.1758 87.8277 44.1238 87.9525 44.0332C88.0772 43.9425 88.1726 43.8172 88.2267 43.6728C88.2808 43.5285 88.2914 43.3713 88.257 43.221L87.3 39.027L90.53 36.195C90.6457 36.0933 90.729 35.9599 90.7697 35.8113C90.8104 35.6628 90.8067 35.5055 90.759 35.359H90.761Z" fill="#AAAAAA"/>
</svg>
