<svg width="15" height="15" viewBox="0 0 15 15" fill="none" xmlns="http://www.w3.org/2000/svg">
<path d="M14.761 5.35903C14.7135 5.21276 14.6241 5.08363 14.504 4.98765C14.3838 4.89166 14.2381 4.83303 14.085 4.81903L9.81197 4.43103L8.12397 0.478028C8.06334 0.336383 7.96246 0.215651 7.83385 0.130805C7.70524 0.0459597 7.55455 0.000732422 7.40047 0.000732422C7.2464 0.000732422 7.09571 0.0459597 6.9671 0.130805C6.83848 0.215651 6.73761 0.336383 6.67697 0.478028L4.98797 4.43103L0.714973 4.81903C0.561817 4.83342 0.416221 4.89232 0.296142 4.98847C0.176063 5.08461 0.0867521 5.21381 0.0392246 5.36011C-0.00830304 5.50642 -0.0119688 5.66343 0.0286795 5.8118C0.0693277 5.96016 0.152512 6.09338 0.267974 6.19503L3.49997 9.02703L2.54797 13.221C2.51359 13.3713 2.52412 13.5285 2.57825 13.6728C2.63239 13.8172 2.72775 13.9425 2.85249 14.0332C2.97723 14.1238 3.12585 14.1758 3.2799 14.1827C3.43394 14.1896 3.58662 14.1511 3.71897 14.072L7.40297 11.872L11.086 14.072C11.2183 14.1511 11.371 14.1896 11.5251 14.1827C11.6791 14.1758 11.8277 14.1238 11.9525 14.0332C12.0772 13.9425 12.1726 13.8172 12.2267 13.6728C12.2808 13.5285 12.2914 13.3713 12.257 13.221L11.3 9.02703L14.53 6.19503C14.6457 6.09332 14.729 5.95993 14.7697 5.81134C14.8104 5.66276 14.8067 5.50551 14.759 5.35903H14.761Z" fill="#AAAAAA"/>
</svg>
