<svg width="38" height="40" viewBox="0 0 38 40" fill="none" xmlns="http://www.w3.org/2000/svg">
<path d="M36.707 9.10145L19.013 0.557454C18.9351 0.519527 18.8496 0.499817 18.763 0.499817C18.6764 0.499817 18.5909 0.519527 18.513 0.557454L0.823 9.10145C0.726278 9.14809 0.644667 9.22106 0.587534 9.31197C0.530401 9.40289 0.500062 9.50808 0.5 9.61545V30.3585C0.500062 30.4658 0.530401 30.571 0.587534 30.6619C0.644667 30.7529 0.726278 30.8258 0.823 30.8725L18.517 39.4145C18.5949 39.4524 18.6804 39.4721 18.767 39.4721C18.8536 39.4721 18.9391 39.4524 19.017 39.4145L36.711 30.8725C36.8077 30.8258 36.8893 30.7529 36.9465 30.6619C37.0036 30.571 37.0339 30.4658 37.034 30.3585V9.61345C37.0332 9.50599 37.0021 9.40093 36.9442 9.31036C36.8864 9.21978 36.8042 9.14738 36.707 9.10145ZM18.768 1.70145L35.146 9.61345L30.397 11.9015C30.3659 11.8777 30.3324 11.8573 30.297 11.8405L14.031 3.99145L18.768 1.70145ZM12.742 4.63645L29.099 12.5365L25.749 14.1535L9.398 6.25745L12.742 4.63645ZM29.482 13.6165V19.5945L26.352 21.1015V15.1265L29.482 13.6165ZM35.888 30.0015L19.336 37.9915V18.5145L23.284 16.6085C23.4203 16.5422 23.5247 16.4244 23.5742 16.2811C23.6237 16.1379 23.6143 15.9808 23.548 15.8445C23.4817 15.7081 23.364 15.6037 23.2207 15.5542C23.0774 15.5047 22.9203 15.5142 22.784 15.5805L18.768 17.5215L17.185 16.7575C17.0487 16.6912 16.8916 16.6817 16.7483 16.7312C16.605 16.7807 16.4873 16.8851 16.421 17.0215C16.3547 17.1578 16.3453 17.3149 16.3948 17.4581C16.4443 17.6014 16.5487 17.7192 16.685 17.7855L18.193 18.5135V37.9915L1.642 30.0015V10.5235L14.242 16.6085C14.3783 16.6748 14.5354 16.6842 14.6787 16.6347C14.822 16.5852 14.9397 16.4808 15.006 16.3445C15.0723 16.2081 15.0817 16.0511 15.0322 15.9078C14.9827 15.7645 14.8783 15.6468 14.742 15.5805L2.384 9.61345L8.055 6.87545L25.203 15.1535L25.211 15.1635V22.0135C25.2111 22.1101 25.2356 22.2051 25.2824 22.2896C25.3292 22.3741 25.3966 22.4454 25.4785 22.4968C25.5603 22.5481 25.6538 22.5779 25.7503 22.5832C25.8467 22.5886 25.943 22.5694 26.03 22.5275L30.301 20.4655C30.3977 20.4188 30.4793 20.3459 30.5365 20.2549C30.5936 20.164 30.6239 20.0588 30.624 19.9515V13.0645L35.889 10.5225L35.888 30.0015Z" fill="black"/>
<path d="M6.353 27.7865L3.753 26.5325C3.61668 26.4662 3.4596 26.4568 3.31632 26.5063C3.17305 26.5558 3.0553 26.6602 2.989 26.7965C2.9227 26.9328 2.91326 27.0899 2.96277 27.2332C3.01228 27.3764 3.11668 27.4942 3.253 27.5605L5.853 28.8135C5.98932 28.8798 6.1464 28.8892 6.28968 28.8397C6.43296 28.7902 6.5507 28.6858 6.617 28.5495C6.68331 28.4132 6.69274 28.2561 6.64323 28.1128C6.59372 27.9695 6.48932 27.8518 6.353 27.7855V27.7865Z" fill="black"/>
<path d="M8.744 26.2304L3.761 23.8244C3.62468 23.7581 3.4676 23.7487 3.32432 23.7982C3.18104 23.8477 3.0633 23.9521 2.997 24.0884C2.93069 24.2247 2.92126 24.3818 2.97077 24.5251C3.02028 24.6684 3.12468 24.7861 3.261 24.8524L8.244 27.2584C8.38032 27.3247 8.5374 27.3341 8.68067 27.2846C8.82395 27.2351 8.94169 27.1307 9.008 26.9944C9.0743 26.8581 9.08374 26.701 9.03423 26.5577C8.98472 26.4145 8.88032 26.2967 8.744 26.2304Z" fill="black"/>
</svg>
