<svg width="47" height="36" viewBox="0 0 47 36" fill="none" xmlns="http://www.w3.org/2000/svg">
<path d="M43.829 18.0155H39.973V7.59746C39.9722 6.93095 39.7071 6.29197 39.2358 5.82067C38.7645 5.34938 38.1255 5.08425 37.459 5.08346H31.659V2.58346C31.6579 1.9372 31.4005 1.31775 30.9433 0.861057C30.486 0.404362 29.8663 0.147725 29.22 0.147461H2.937C2.29074 0.148255 1.67119 0.405402 1.2143 0.862473C0.757422 1.31954 0.500529 1.9392 0.5 2.58546V3.66046C0.5 3.74871 0.517382 3.83609 0.551153 3.91763C0.584924 3.99916 0.634423 4.07323 0.696824 4.13564C0.759225 4.19804 0.833306 4.24754 0.914837 4.28131C0.996368 4.31508 1.08375 4.33246 1.172 4.33246C1.26025 4.33246 1.34763 4.31508 1.42916 4.28131C1.51069 4.24754 1.58477 4.19804 1.64718 4.13564C1.70958 4.07323 1.75908 3.99916 1.79285 3.91763C1.82662 3.83609 1.844 3.74871 1.844 3.66046V2.58546C1.84558 2.2958 1.96134 2.01845 2.16617 1.81363C2.37099 1.6088 2.64834 1.49304 2.938 1.49146H29.22C29.5097 1.49304 29.787 1.6088 29.9918 1.81363C30.1967 2.01845 30.3124 2.2958 30.314 2.58546V23.7475H1.844V6.81046C1.844 6.72221 1.82662 6.63483 1.79285 6.5533C1.75908 6.47177 1.70958 6.39768 1.64718 6.33528C1.58477 6.27288 1.51069 6.22338 1.42916 6.18961C1.34763 6.15584 1.26025 6.13846 1.172 6.13846C1.08375 6.13846 0.996368 6.15584 0.914837 6.18961C0.833306 6.22338 0.759225 6.27288 0.696824 6.33528C0.634423 6.39768 0.584924 6.47177 0.551153 6.5533C0.517382 6.63483 0.5 6.72221 0.5 6.81046V29.5845C0.500794 30.2305 0.757803 30.8499 1.21466 31.3068C1.67151 31.7637 2.29091 32.0207 2.937 32.0215H4.481C4.64865 32.9315 5.12984 33.754 5.84096 34.3461C6.55207 34.9382 7.44816 35.2624 8.3735 35.2624C9.29884 35.2624 10.1949 34.9382 10.906 34.3461C11.6172 33.754 12.0984 32.9315 12.266 32.0215H22.954C23.0422 32.0215 23.1296 32.0041 23.2112 31.9703C23.2927 31.9365 23.3668 31.887 23.4292 31.8246C23.4916 31.7622 23.5411 31.6882 23.5748 31.6066C23.6086 31.5251 23.626 31.4377 23.626 31.3495C23.626 31.2612 23.6086 31.1738 23.5748 31.0923C23.5411 31.0108 23.4916 30.9367 23.4292 30.8743C23.3668 30.8119 23.2927 30.7624 23.2112 30.7286C23.1296 30.6948 23.0422 30.6775 22.954 30.6775H12.282C12.1322 29.749 11.6568 28.9042 10.9407 28.2944C10.2247 27.6846 9.31498 27.3497 8.3745 27.3497C7.43402 27.3497 6.52427 27.6846 5.80825 28.2944C5.09224 28.9042 4.61676 29.749 4.467 30.6775H2.937C2.64734 30.6759 2.36999 30.5601 2.16517 30.3553C1.96034 30.1505 1.84458 29.8731 1.843 29.5835V25.0835H30.313V30.6725H26.036C25.8578 30.6725 25.6868 30.7433 25.5608 30.8693C25.4348 30.9953 25.364 31.1662 25.364 31.3445C25.364 31.5227 25.4348 31.6936 25.5608 31.8196C25.6868 31.9457 25.8578 32.0165 26.036 32.0165H34.749C34.9166 32.9265 35.3978 33.749 36.109 34.3411C36.8201 34.9332 37.7162 35.2574 38.6415 35.2574C39.5668 35.2574 40.4629 34.9332 41.174 34.3411C41.8852 33.749 42.3664 32.9265 42.534 32.0165H43.851C44.5175 32.0157 45.1565 31.7505 45.6278 31.2793C46.0991 30.808 46.3642 30.169 46.365 29.5025V20.5475C46.3632 19.8758 46.0952 19.2323 45.6199 18.7577C45.1446 18.2831 44.5007 18.0162 43.829 18.0155ZM8.374 28.6925C8.891 28.6925 9.39639 28.8458 9.82626 29.133C10.2561 29.4202 10.5912 29.8285 10.789 30.3061C10.9869 30.7838 11.0386 31.3094 10.9378 31.8164C10.8369 32.3235 10.588 32.7893 10.2224 33.1548C9.8568 33.5204 9.39103 33.7694 8.88397 33.8702C8.3769 33.9711 7.85131 33.9193 7.37367 33.7215C6.89602 33.5236 6.48777 33.1886 6.20054 32.7587C5.91331 32.3288 5.76 31.8235 5.76 31.3065C5.76079 30.6134 6.03645 29.949 6.5265 29.459C7.01655 28.9689 7.68097 28.6933 8.374 28.6925ZM38.642 33.9205C38.125 33.9205 37.6196 33.7672 37.1897 33.4799C36.7599 33.1927 36.4248 32.7844 36.227 32.3068C36.0291 31.8291 35.9774 31.3036 36.0782 30.7965C36.1791 30.2894 36.428 29.8237 36.7936 29.4581C37.1592 29.0925 37.625 28.8436 38.132 28.7427C38.6391 28.6418 39.1647 28.6936 39.6423 28.8914C40.12 29.0893 40.5282 29.4243 40.8155 29.8542C41.1027 30.2841 41.256 30.7895 41.256 31.3065C41.2552 31.9995 40.9795 32.6639 40.4895 33.154C39.9995 33.644 39.335 33.9197 38.642 33.9205ZM45.022 24.1955H43.233C43.0548 24.1955 42.8839 24.1247 42.7578 23.9986C42.6318 23.8726 42.561 23.7017 42.561 23.5235C42.561 23.3452 42.6318 23.1743 42.7578 23.0483C42.8839 22.9223 43.0548 22.8515 43.233 22.8515H45.021L45.022 24.1955ZM45.022 21.5085H43.233C42.7062 21.5202 42.205 21.7377 41.8366 22.1144C41.4682 22.4911 41.2619 22.9971 41.2619 23.524C41.2619 24.0509 41.4682 24.5568 41.8366 24.9335C42.205 25.3102 42.7062 25.5277 43.233 25.5395H45.021V29.5095C45.0205 29.8196 44.897 30.1169 44.6777 30.3362C44.4584 30.5555 44.1611 30.6789 43.851 30.6795H42.551C42.4012 29.751 41.9258 28.9062 41.2097 28.2964C40.4937 27.6866 39.584 27.3517 38.6435 27.3517C37.703 27.3517 36.7933 27.6866 36.0773 28.2964C35.3612 28.9062 34.8858 29.751 34.736 30.6795H31.657V6.42746H37.457C37.7671 6.42799 38.0644 6.55143 38.2837 6.77073C38.503 6.99003 38.6265 7.28732 38.627 7.59746V7.75346H34.127C33.9488 7.75346 33.7779 7.82426 33.6518 7.95029C33.5258 8.07631 33.455 8.24724 33.455 8.42546V18.6875C33.455 18.8657 33.5258 19.0366 33.6518 19.1626C33.7779 19.2887 33.9488 19.3595 34.127 19.3595H43.827C44.1426 19.3595 44.4454 19.4844 44.6692 19.7071C44.8929 19.9297 45.0194 20.2318 45.021 20.5475V21.5025L45.022 21.5085ZM38.629 9.09746V18.0155H34.8V9.09746H38.629Z" fill="black"/>
<path d="M35.684 21.5074H34.127C33.9488 21.5074 33.7778 21.5782 33.6518 21.7043C33.5258 21.8303 33.455 22.0012 33.455 22.1794C33.455 22.3577 33.5258 22.5286 33.6518 22.6546C33.7778 22.7806 33.9488 22.8514 34.127 22.8514H35.68C35.8582 22.8514 36.0292 22.7806 36.1552 22.6546C36.2812 22.5286 36.352 22.3577 36.352 22.1794C36.352 22.0012 36.2812 21.8303 36.1552 21.7043C36.0292 21.5782 35.8582 21.5074 35.68 21.5074H35.684Z" fill="black"/>
<path d="M20.019 11.1174C20.1972 11.1174 20.3681 11.0466 20.4942 10.9206C20.6202 10.7946 20.691 10.6237 20.691 10.4454C20.691 10.2672 20.6202 10.0963 20.4942 9.97028C20.3681 9.84425 20.1972 9.77344 20.019 9.77344H17.333C17.1548 9.77344 16.9838 9.84425 16.8578 9.97028C16.7318 10.0963 16.661 10.2672 16.661 10.4454V15.8185C16.661 15.9967 16.7318 16.1676 16.8578 16.2936C16.9838 16.4196 17.1548 16.4904 17.333 16.4904H20.019C20.1972 16.4904 20.3681 16.4196 20.4942 16.2936C20.6202 16.1676 20.691 15.9967 20.691 15.8185C20.691 15.6402 20.6202 15.4693 20.4942 15.3433C20.3681 15.2172 20.1972 15.1464 20.019 15.1464H18.005V13.8035H20.019C20.1972 13.8035 20.3681 13.7326 20.4942 13.6066C20.6202 13.4806 20.691 13.3097 20.691 13.1314C20.691 12.9532 20.6202 12.7823 20.4942 12.6563C20.3681 12.5302 20.1972 12.4594 20.019 12.4594H18.005V11.1164L20.019 11.1174Z" fill="black"/>
<path d="M25.303 11.1174C25.4812 11.1174 25.6522 11.0466 25.7782 10.9206C25.9042 10.7946 25.975 10.6237 25.975 10.4454C25.975 10.2672 25.9042 10.0963 25.7782 9.97028C25.6522 9.84425 25.4812 9.77344 25.303 9.77344H22.617C22.4388 9.77344 22.2679 9.84425 22.1418 9.97028C22.0158 10.0963 21.945 10.2672 21.945 10.4454V15.8185C21.945 15.9967 22.0158 16.1676 22.1418 16.2936C22.2679 16.4196 22.4388 16.4904 22.617 16.4904H25.303C25.4812 16.4904 25.6522 16.4196 25.7782 16.2936C25.9042 16.1676 25.975 15.9967 25.975 15.8185C25.975 15.6402 25.9042 15.4693 25.7782 15.3433C25.6522 15.2172 25.4812 15.1464 25.303 15.1464H23.289V13.8035H25.303C25.4812 13.8035 25.6522 13.7326 25.7782 13.6066C25.9042 13.4806 25.975 13.3097 25.975 13.1314C25.975 12.9532 25.9042 12.7823 25.7782 12.6563C25.6522 12.5302 25.4812 12.4594 25.303 12.4594H23.289V11.1164L25.303 11.1174Z" fill="black"/>
<path d="M9.54 11.1174C9.71823 11.1174 9.88915 11.0466 10.0152 10.9206C10.1412 10.7946 10.212 10.6237 10.212 10.4454C10.212 10.2672 10.1412 10.0963 10.0152 9.97028C9.88915 9.84425 9.71823 9.77344 9.54 9.77344H6.851C6.67277 9.77344 6.50185 9.84425 6.37582 9.97028C6.2498 10.0963 6.179 10.2672 6.179 10.4454V15.8185C6.179 15.9967 6.2498 16.1676 6.37582 16.2936C6.50185 16.4196 6.67277 16.4904 6.851 16.4904C7.02922 16.4904 7.20015 16.4196 7.32617 16.2936C7.4522 16.1676 7.523 15.9967 7.523 15.8185V13.8035H9.537C9.71523 13.8035 9.88615 13.7326 10.0122 13.6066C10.1382 13.4806 10.209 13.3097 10.209 13.1314C10.209 12.9532 10.1382 12.7823 10.0122 12.6563C9.88615 12.5302 9.71523 12.4594 9.537 12.4594H7.526V11.1164L9.54 11.1174Z" fill="black"/>
<path d="M15.407 13.1295V10.4425C15.407 10.2643 15.3362 10.0934 15.2102 9.96733C15.0842 9.84131 14.9132 9.77051 14.735 9.77051H12.047C11.8688 9.77051 11.6978 9.84131 11.5718 9.96733C11.4458 10.0934 11.375 10.2643 11.375 10.4425V15.8155C11.375 15.9038 11.3924 15.9911 11.4262 16.0727C11.4599 16.1542 11.5094 16.2283 11.5718 16.2907C11.6342 16.3531 11.7083 16.4026 11.7898 16.4364C11.8714 16.4701 11.9587 16.4875 12.047 16.4875C12.1352 16.4875 12.2226 16.4701 12.3042 16.4364C12.3857 16.4026 12.4598 16.3531 12.5222 16.2907C12.5846 16.2283 12.6341 16.1542 12.6678 16.0727C12.7016 15.9911 12.719 15.9038 12.719 15.8155V14.0095L14.174 16.1915C14.223 16.2649 14.2859 16.328 14.3593 16.377C14.4326 16.4261 14.5149 16.4603 14.6015 16.4775C14.688 16.4948 14.7771 16.4949 14.8637 16.4777C14.9503 16.4605 15.0326 16.4265 15.106 16.3775C15.1794 16.3285 15.2425 16.2656 15.2915 16.1922C15.3406 16.1189 15.3747 16.0366 15.392 15.95C15.4093 15.8635 15.4094 15.7744 15.3922 15.6878C15.375 15.6013 15.341 15.5189 15.292 15.4455L14.192 13.8035H14.728C14.817 13.8044 14.9053 13.7877 14.9878 13.7542C15.0702 13.7207 15.1452 13.6712 15.2084 13.6085C15.2716 13.5458 15.3217 13.4711 15.3558 13.3889C15.3899 13.3067 15.4073 13.2185 15.407 13.1295ZM14.063 12.4575H12.721V11.1145H14.063V12.4575Z" fill="black"/>
</svg>
