<svg width="48" height="31" viewBox="0 0 48 31" fill="none" xmlns="http://www.w3.org/2000/svg">
<path d="M44.144 13.2334L42.929 8.37244C43.0937 8.33739 43.2414 8.24686 43.3473 8.11598C43.4532 7.98511 43.511 7.82182 43.511 7.65344V6.86944C43.5091 6.05165 43.1832 5.26795 42.6045 4.69006C42.0259 4.11217 41.2418 3.78723 40.424 3.78644H34.889V2.16744C34.8887 1.76466 34.7286 1.37845 34.4438 1.09364C34.159 0.808825 33.7728 0.648702 33.37 0.648438H5.154C4.75122 0.648702 4.36501 0.808825 4.0802 1.09364C3.79539 1.37845 3.63526 1.76466 3.635 2.16744V15.4914C3.635 15.6864 3.71244 15.8733 3.85028 16.0112C3.98812 16.149 4.17507 16.2264 4.37 16.2264C4.56493 16.2264 4.75188 16.149 4.88972 16.0112C5.02756 15.8733 5.105 15.6864 5.105 15.4914V2.16744C5.105 2.15445 5.11016 2.14198 5.11935 2.13279C5.12854 2.1236 5.141 2.11844 5.154 2.11844H33.37C33.383 2.11844 33.3955 2.1236 33.4046 2.13279C33.4138 2.14198 33.419 2.15445 33.419 2.16744V15.4924C33.419 15.6874 33.4964 15.8743 33.6343 16.0122C33.7721 16.15 33.9591 16.2274 34.154 16.2274C34.3489 16.2274 34.5359 16.15 34.6737 16.0122C34.8116 15.8743 34.889 15.6874 34.889 15.4924V14.6594H43.561C44.0689 14.6599 44.5635 14.8214 44.9737 15.1208C45.384 15.4201 45.6887 15.8419 45.844 16.3254H43.559C43.3641 16.3254 43.1771 16.4029 43.0393 16.5407C42.9014 16.6786 42.824 16.8655 42.824 17.0604V18.6284C42.824 19.2384 43.0663 19.8235 43.4977 20.2548C43.929 20.6861 44.514 20.9284 45.124 20.9284H45.957V24.1614H44.038C43.7233 23.2446 43.1301 22.4491 42.3412 21.8858C41.5524 21.3225 40.6073 21.0198 39.638 21.0198C38.6687 21.0198 37.7236 21.3225 36.9348 21.8858C36.1459 22.4491 35.5527 23.2446 35.238 24.1614H34.884V18.6264C34.884 18.4315 34.8066 18.2446 34.6687 18.1067C34.5309 17.9689 34.3439 17.8914 34.149 17.8914C33.9541 17.8914 33.7671 17.9689 33.6293 18.1067C33.4914 18.2446 33.414 18.4315 33.414 18.6264V24.1614H18.173C17.8583 23.2446 17.2651 22.4491 16.4762 21.8858C15.6874 21.3225 14.7423 21.0198 13.773 21.0198C12.8037 21.0198 11.8586 21.3225 11.0698 21.8858C10.2809 22.4491 9.6877 23.2446 9.373 24.1614H5.154C5.141 24.1614 5.12854 24.1563 5.11935 24.1471C5.11016 24.1379 5.105 24.1254 5.105 24.1124V22.4964H8.289C8.48393 22.4964 8.67088 22.419 8.80872 22.2812C8.94656 22.1433 9.024 21.9564 9.024 21.7614C9.024 21.5665 8.94656 21.3796 8.80872 21.2417C8.67088 21.1039 8.48393 21.0264 8.289 21.0264H1.235C1.04007 21.0264 0.853116 21.1039 0.715277 21.2417C0.577437 21.3796 0.5 21.5665 0.5 21.7614C0.5 21.9564 0.577437 22.1433 0.715277 22.2812C0.853116 22.419 1.04007 22.4964 1.235 22.4964H3.635V24.1134C3.63526 24.5162 3.79539 24.9024 4.0802 25.1872C4.36501 25.4721 4.75122 25.6322 5.154 25.6324H9.123C9.123 25.6484 9.123 25.6654 9.123 25.6814C9.11396 26.2983 9.22764 26.9108 9.45744 27.4833C9.68725 28.0558 10.0286 28.5769 10.4616 29.0163C10.8946 29.4557 11.4107 29.8047 11.9797 30.0428C12.5488 30.281 13.1596 30.4037 13.7765 30.4037C14.3934 30.4037 15.0042 30.281 15.5733 30.0428C16.1423 29.8047 16.6584 29.4557 17.0914 29.0163C17.5244 28.5769 17.8658 28.0558 18.0956 27.4833C18.3254 26.9108 18.439 26.2983 18.43 25.6814C18.43 25.6654 18.43 25.6484 18.43 25.6324H34.99C34.99 25.6484 34.99 25.6654 34.99 25.6814C34.981 26.2983 35.0946 26.9108 35.3244 27.4833C35.5542 28.0558 35.8956 28.5769 36.3286 29.0163C36.7616 29.4557 37.2777 29.8047 37.8467 30.0428C38.4158 30.281 39.0266 30.4037 39.6435 30.4037C40.2604 30.4037 40.8712 30.281 41.4403 30.0428C42.0093 29.8047 42.5254 29.4557 42.9584 29.0163C43.3914 28.5769 43.7328 28.0558 43.9626 27.4833C44.1924 26.9108 44.306 26.2983 44.297 25.6814C44.297 25.6654 44.297 25.6484 44.297 25.6324H46.697C46.8919 25.6324 47.0789 25.555 47.2167 25.4172C47.3546 25.2793 47.432 25.0924 47.432 24.8974V17.0594C47.4308 16.1342 47.0986 15.24 46.4956 14.5383C45.8926 13.8366 45.0585 13.3738 44.144 13.2334ZM34.889 5.25344H40.424C40.8528 5.25371 41.2639 5.42415 41.5671 5.72734C41.8703 6.03053 42.0407 6.44166 42.041 6.87044V6.91944H34.889V5.25344ZM34.889 13.1894V8.38944H41.418L42.618 13.1894H34.889ZM13.775 28.8644C13.1453 28.8644 12.5297 28.6777 12.0061 28.3278C11.4825 27.978 11.0744 27.4807 10.8334 26.8989C10.5924 26.3171 10.5293 25.6769 10.6522 25.0593C10.775 24.4416 11.0783 23.8743 11.5236 23.429C11.9689 22.9837 12.5362 22.6805 13.1538 22.5576C13.7715 22.4348 14.4117 22.4978 14.9935 22.7388C15.5753 22.9798 16.0725 23.3879 16.4224 23.9115C16.7723 24.4351 16.959 25.0507 16.959 25.6804C16.9579 26.5246 16.6221 27.3338 16.0253 27.9307C15.4284 28.5276 14.6191 28.8634 13.775 28.8644ZM39.64 28.8644C39.0103 28.8644 38.3947 28.6777 37.8711 28.3278C37.3475 27.978 36.9394 27.4807 36.6984 26.8989C36.4574 26.3171 36.3943 25.6769 36.5172 25.0593C36.64 24.4416 36.9433 23.8743 37.3886 23.429C37.8339 22.9837 38.4012 22.6805 39.0188 22.5576C39.6365 22.4348 40.2767 22.4978 40.8585 22.7388C41.4403 22.9798 41.9375 23.3879 42.2874 23.9115C42.6373 24.4351 42.824 25.0507 42.824 25.6804C42.8229 26.5246 42.4871 27.3338 41.8903 27.9307C41.2934 28.5276 40.4841 28.8634 39.64 28.8644ZM45.959 19.4594H45.126C44.9052 19.4592 44.6934 19.3713 44.5373 19.2152C44.3811 19.059 44.2933 18.8473 44.293 18.6264V17.7934H45.96V19.4594H45.959Z" fill="black"/>
<path d="M13.776 24.1654C13.4756 24.1654 13.1819 24.2545 12.9321 24.4214C12.6823 24.5883 12.4876 24.8255 12.3726 25.1031C12.2577 25.3806 12.2276 25.6861 12.2862 25.9807C12.3448 26.2754 12.4895 26.546 12.7019 26.7585C12.9143 26.9709 13.185 27.1156 13.4797 27.1742C13.7743 27.2328 14.0797 27.2027 14.3573 27.0878C14.6349 26.9728 14.8721 26.7781 15.039 26.5283C15.2059 26.2785 15.295 25.9848 15.295 25.6844C15.2947 25.2816 15.1346 24.8954 14.8498 24.6106C14.565 24.3258 14.1788 24.1657 13.776 24.1654Z" fill="black"/>
<path d="M39.641 24.1654C39.3405 24.1654 39.0469 24.2545 38.7971 24.4214C38.5473 24.5883 38.3526 24.8255 38.2376 25.1031C38.1226 25.3806 38.0926 25.6861 38.1512 25.9807C38.2098 26.2754 38.3544 26.546 38.5669 26.7585C38.7793 26.9709 39.05 27.1156 39.3446 27.1742C39.6393 27.2328 39.9447 27.2027 40.2223 27.0878C40.4998 26.9728 40.7371 26.7781 40.904 26.5283C41.0709 26.2785 41.16 25.9848 41.16 25.6844C41.1597 25.2816 40.9996 24.8954 40.7148 24.6106C40.43 24.3258 40.0438 24.1657 39.641 24.1654Z" fill="black"/>
<path d="M31.019 21.0275H20.046C19.8511 21.0275 19.6641 21.1049 19.5263 21.2427C19.3884 21.3806 19.311 21.5675 19.311 21.7625C19.311 21.9574 19.3884 22.1444 19.5263 22.2822C19.6641 22.42 19.8511 22.4975 20.046 22.4975H31.019C31.2139 22.4975 31.4009 22.42 31.5387 22.2822C31.6766 22.1444 31.754 21.9574 31.754 21.7625C31.754 21.5675 31.6766 21.3806 31.5387 21.2427C31.4009 21.1049 31.2139 21.0275 31.019 21.0275Z" fill="black"/>
<path d="M12.208 17.8915H2.80299C2.60806 17.8915 2.42111 17.9689 2.28327 18.1068C2.14543 18.2446 2.06799 18.4316 2.06799 18.6265C2.06799 18.8214 2.14543 19.0084 2.28327 19.1462C2.42111 19.284 2.60806 19.3615 2.80299 19.3615H12.208C12.4029 19.3615 12.5899 19.284 12.7277 19.1462C12.8656 19.0084 12.943 18.8214 12.943 18.6265C12.943 18.4316 12.8656 18.2446 12.7277 18.1068C12.5899 17.9689 12.4029 17.8915 12.208 17.8915Z" fill="black"/>
<path d="M26.054 7.91745C25.9162 7.77975 25.7293 7.70239 25.5345 7.70239C25.3397 7.70239 25.1528 7.77975 25.015 7.91745L18.48 14.4514L15.08 11.0514C15.0125 10.9799 14.9314 10.9226 14.8414 10.883C14.7514 10.8434 14.6544 10.8222 14.556 10.8208C14.4577 10.8193 14.3601 10.8376 14.269 10.8746C14.1778 10.9116 14.0951 10.9664 14.0255 11.036C13.956 11.1055 13.9011 11.1883 13.8642 11.2794C13.8272 11.3705 13.8089 11.4682 13.8103 11.5665C13.8118 11.6648 13.8329 11.7618 13.8726 11.8518C13.9122 11.9418 13.9695 12.023 14.041 12.0904L17.96 16.0094C18.0978 16.1471 18.2847 16.2245 18.4795 16.2245C18.6743 16.2245 18.8612 16.1471 18.999 16.0094L26.053 8.95544C26.1905 8.8178 26.2679 8.63123 26.2681 8.43665C26.2682 8.24207 26.1913 8.05536 26.054 7.91745Z" fill="black"/>
</svg>
