<svg width="36" height="32" xmlns="http://www.w3.org/2000/svg" fill="none">

 <g>
  <title>Layer 1</title>
  <path id="svg_1" fill="#F8BA10" d="m18.0001,5.67136l-3.0805,8.17424l-8.81548,0.2114l6.99698,5.0286l-2.584,8.1625l7.483,-4.8294l7.483,4.8294l-2.584,-8.1625l6.997,-5.0286l-8.8155,-0.2114l-3.0805,-8.17424zm0,-5.67136l4.4765,11.8785l13.4296,0.322l-10.6629,7.6633l3.8234,12.0775l-11.0666,-7.1423l-11.06658,7.1423l3.82338,-12.0775l-10.66291,-7.6633l13.42961,-0.322l4.4765,-11.8785z"/>
  <path id="svg_2" fill="#F8BA10" d="m18.15415,0l0,24.8l-11.06597,7.141l3.82297,-12.077l-10.66298,-7.664l13.42998,-0.322l4.476,-11.878z"/>
 </g>
</svg>