<svg width="22" height="15" viewBox="0 0 22 15" fill="none" xmlns="http://www.w3.org/2000/svg">
<path d="M20.5 0H1.5C0.671573 0 0 0.671573 0 1.5C0 2.32843 0.671573 3 1.5 3H20.5C21.3284 3 22 2.32843 22 1.5C22 0.671573 21.3284 0 20.5 0Z" fill="#1F8530"/>
<path d="M20.5 6H1.5C0.671573 6 0 6.67157 0 7.5C0 8.32843 0.671573 9 1.5 9H20.5C21.3284 9 22 8.32843 22 7.5C22 6.67157 21.3284 6 20.5 6Z" fill="#1F8530"/>
<path d="M20.5 12H1.5C0.671573 12 0 12.6716 0 13.5C0 14.3284 0.671573 15 1.5 15H20.5C21.3284 15 22 14.3284 22 13.5C22 12.6716 21.3284 12 20.5 12Z" fill="#1F8530"/>
</svg>
