<svg width="13" height="18" viewBox="0 0 13 18" fill="none" xmlns="http://www.w3.org/2000/svg">
<path d="M6.67703 0.748001C5.61597 0.748307 4.57422 1.03188 3.65939 1.56942C2.74456 2.10696 1.98982 2.87898 1.47313 3.80575C0.956438 4.73251 0.696523 5.78041 0.720239 6.84121C0.743955 7.90202 1.05044 8.93725 1.60803 9.84L6.33804 17.463C6.3828 17.5346 6.44498 17.5937 6.51878 17.6348C6.59257 17.6759 6.67557 17.6977 6.76003 17.698C6.84506 17.697 6.92844 17.6744 7.00228 17.6322C7.07612 17.59 7.13799 17.5297 7.18203 17.457L11.792 9.757C12.3305 8.85268 12.6198 7.82191 12.6307 6.7695C12.6415 5.71709 12.3735 4.68057 11.8539 3.76533C11.3342 2.85009 10.5815 2.08878 9.6722 1.5588C8.76292 1.02882 7.7295 0.74907 6.67703 0.748001V0.748001ZM10.943 9.248L6.75203 16.248L2.45204 9.318C1.98767 8.56835 1.73116 7.70862 1.70884 6.82707C1.68653 5.94553 1.89921 5.07392 2.32506 4.30173C2.75091 3.52955 3.37457 2.88459 4.13204 2.43308C4.88951 1.98157 5.75349 1.73977 6.63529 1.7325C7.51708 1.72523 8.38493 1.95276 9.14974 2.39172C9.91455 2.83068 10.5488 3.46526 10.9873 4.23032C11.4258 4.99539 11.6528 5.86337 11.6451 6.74516C11.6373 7.62695 11.395 8.49079 10.943 9.248Z" fill="white"/>
<path d="M6.67603 3.72701C6.08684 3.72701 5.51088 3.90172 5.02099 4.22906C4.53109 4.55639 4.14926 5.02165 3.92379 5.56599C3.69831 6.11034 3.63932 6.70931 3.75426 7.28718C3.86921 7.86505 4.15293 8.39586 4.56956 8.81248C4.98618 9.2291 5.51698 9.51282 6.09485 9.62776C6.67272 9.74271 7.2717 9.68372 7.81605 9.45824C8.36039 9.23277 8.82564 8.85094 9.15298 8.36105C9.48031 7.87115 9.65502 7.29519 9.65502 6.706C9.65396 5.91625 9.33977 5.15914 8.78133 4.6007C8.22289 4.04226 7.46579 3.72806 6.67603 3.72701ZM6.67603 8.69901C6.28173 8.6996 5.89609 8.58322 5.56795 8.36459C5.23981 8.14595 4.98391 7.83489 4.8326 7.47077C4.6813 7.10665 4.6414 6.70583 4.71796 6.31903C4.79452 5.93223 4.98409 5.57683 5.2627 5.29781C5.54131 5.01878 5.89642 4.82867 6.2831 4.75153C6.66979 4.67438 7.07067 4.71367 7.43502 4.86443C7.79937 5.01518 8.1108 5.27063 8.32993 5.59844C8.54906 5.92625 8.66602 6.3117 8.66602 6.706C8.66576 7.23398 8.45611 7.7403 8.08306 8.11391C7.71001 8.48753 7.20401 8.69795 6.67603 8.69901Z" fill="white"/>
</svg>
