<svg width="14" height="14" viewBox="0 0 14 14" fill="none" xmlns="http://www.w3.org/2000/svg">
<path d="M8.45276 8.71875H8.4137C8.03349 9.95833 7.28609 10.5781 6.17151 10.5781C5.45797 10.5781 4.88245 10.3151 4.44495 9.78906C4.01265 9.26302 3.79651 8.55469 3.79651 7.66406C3.79651 6.48698 4.09599 5.51042 4.69495 4.73438C5.29911 3.95312 6.09078 3.5625 7.06995 3.5625C7.44495 3.5625 7.77828 3.65885 8.06995 3.85156C8.36682 4.04427 8.55693 4.28646 8.64026 4.57812H8.67151C8.68193 4.43229 8.70797 4.13281 8.74963 3.67969H9.7262C9.4814 6.54948 9.35901 8.01042 9.35901 8.0625C9.35901 9.14062 9.6689 9.67969 10.2887 9.67969C10.8512 9.67969 11.3173 9.375 11.6871 8.76562C12.0621 8.15625 12.2496 7.36719 12.2496 6.39844C12.2496 4.96615 11.7965 3.79688 10.8903 2.89062C9.98401 1.98438 8.7288 1.53125 7.12463 1.53125C5.57776 1.53125 4.29911 2.07292 3.2887 3.15625C2.27828 4.23958 1.77307 5.59375 1.77307 7.21875C1.77307 8.81771 2.25224 10.1094 3.21057 11.0938C4.17411 12.0729 5.47099 12.5625 7.1012 12.5625C8.38765 12.5625 9.48661 12.349 10.3981 11.9219V12.8906C9.49703 13.276 8.37203 13.4688 7.02307 13.4688C5.12724 13.4688 3.59859 12.8984 2.43713 11.7578C1.28088 10.612 0.702759 9.11458 0.702759 7.26562C0.702759 5.35938 1.30953 3.77865 2.52307 2.52344C3.74182 1.26823 5.29651 0.640625 7.18713 0.640625C8.95797 0.640625 10.4241 1.16667 11.5856 2.21875C12.747 3.27083 13.3278 4.64323 13.3278 6.33594C13.3278 7.57552 13.0205 8.59375 12.4059 9.39062C11.7965 10.1823 11.0517 10.5781 10.1715 10.5781C9.03088 10.5781 8.45797 9.95833 8.45276 8.71875ZM7.05432 4.46875C6.40849 4.46875 5.88505 4.77604 5.48401 5.39062C5.08818 6.00521 4.89026 6.76823 4.89026 7.67969C4.89026 8.29427 5.02307 8.77865 5.2887 9.13281C5.55953 9.48698 5.9189 9.66406 6.36682 9.66406C7.01265 9.66406 7.52307 9.34375 7.89807 8.70312C8.27828 8.05729 8.46838 7.20312 8.46838 6.14062C8.46838 5.02604 7.99703 4.46875 7.05432 4.46875Z" fill="white"/>
</svg>
