<svg width="14" height="14" viewBox="0 0 14 14" fill="none" xmlns="http://www.w3.org/2000/svg">
<path d="M9.733 13.383C9.31295 13.3823 8.89629 13.3078 8.502 13.163C6.71122 12.5086 5.0845 11.4719 3.735 10.125C2.38811 8.77553 1.35141 7.14881 0.697001 5.35801C0.490787 4.79806 0.428549 4.19528 0.516001 3.60501C0.600298 3.04473 0.813767 2.51174 1.13953 2.04817C1.4653 1.5846 1.89443 1.20316 2.393 0.934011C2.9205 0.649808 3.51081 0.502316 4.11 0.505011C4.20211 0.504666 4.29151 0.536118 4.36311 0.594055C4.43471 0.651991 4.48412 0.732862 4.503 0.823011L5.135 3.77101C5.14932 3.83672 5.14683 3.90498 5.12778 3.96948C5.10873 4.03397 5.07372 4.09263 5.026 4.14001L3.947 5.21901C4.96815 7.24656 6.61367 8.89243 8.641 9.91401L9.721 8.83401C9.76839 8.78629 9.82704 8.75128 9.89153 8.73223C9.95603 8.71318 10.0243 8.71069 10.09 8.72501L13.038 9.35701C13.1281 9.37589 13.209 9.4253 13.267 9.49691C13.3249 9.56851 13.3563 9.65791 13.356 9.75001C13.3587 10.3492 13.2112 10.9395 12.927 11.467C12.6577 11.9661 12.2758 12.3957 11.8117 12.7217C11.3476 13.0476 10.8139 13.261 10.253 13.345C10.0808 13.3703 9.90703 13.383 9.733 13.383ZM3.788 1.32701C3.36526 1.37519 2.95891 1.5184 2.59938 1.74591C2.23984 1.97343 1.93645 2.27935 1.71193 2.64076C1.48741 3.00217 1.34757 3.4097 1.30291 3.83282C1.25824 4.25594 1.30989 4.68369 1.454 5.08401C2.06337 6.76648 3.03521 8.2944 4.3007 9.55954C5.56618 10.8247 7.09436 11.7961 8.777 12.405C9.17727 12.5489 9.60491 12.6004 10.0279 12.5557C10.4509 12.5109 10.8583 12.3711 11.2196 12.1466C11.5809 11.9221 11.8867 11.6187 12.1141 11.2593C12.3416 10.8999 12.4848 10.4936 12.533 10.071L10.133 9.55701L9.008 10.685C8.94967 10.744 8.87445 10.7834 8.79275 10.7977C8.71105 10.812 8.62692 10.8006 8.552 10.765C6.1534 9.635 4.2237 7.70424 3.095 5.30501C3.05941 5.23009 3.04799 5.14596 3.06233 5.06426C3.07666 4.98256 3.11603 4.90734 3.175 4.84901L4.302 3.72501L3.788 1.32701Z" fill="white"/>
</svg>
