<svg width="31" height="30" viewBox="0 0 31 30" fill="none" xmlns="http://www.w3.org/2000/svg">
<path d="M26.5 1H4.34601C3.53027 1.00106 2.74823 1.32558 2.17141 1.9024C1.59459 2.47922 1.27007 3.26125 1.26901 4.077L1.26901 26.231C1.27007 27.0467 1.59459 27.8288 2.17141 28.4056C2.74823 28.9824 3.53027 29.3069 4.34601 29.308H26.5C27.3158 29.3069 28.0978 28.9824 28.6746 28.4056C29.2514 27.8288 29.576 27.0467 29.577 26.231V4.077C29.576 3.26125 29.2514 2.47922 28.6746 1.9024C28.0978 1.32558 27.3158 1.00106 26.5 1V1ZM28.346 26.231C28.3452 26.7203 28.1505 27.1894 27.8045 27.5354C27.4584 27.8815 26.9894 28.0762 26.5 28.077H4.34601C3.85667 28.0762 3.38759 27.8815 3.04157 27.5354C2.69555 27.1894 2.50081 26.7203 2.50001 26.231V4.077C2.50081 3.58765 2.69555 3.11858 3.04157 2.77256C3.38759 2.42654 3.85667 2.23179 4.34601 2.231H26.5C26.9894 2.23179 27.4584 2.42654 27.8045 2.77256C28.1505 3.11858 28.3452 3.58765 28.346 4.077V26.231Z" fill="#7D7D7D" stroke="#707070"/>
<path d="M23.137 14.634L9.59902 6.019C9.50595 5.95957 9.39859 5.92629 9.28822 5.92266C9.17785 5.91903 9.06854 5.94518 8.97177 5.99838C8.87499 6.05157 8.79433 6.12985 8.73825 6.22497C8.68216 6.3201 8.65272 6.42857 8.65302 6.539V23.769C8.65304 23.8793 8.68269 23.9876 8.73885 24.0825C8.79501 24.1774 8.87563 24.2555 8.97228 24.3087C9.06894 24.3618 9.1781 24.388 9.28834 24.3845C9.39858 24.3811 9.50588 24.3481 9.59902 24.289L23.137 15.674C23.2244 15.6183 23.2963 15.5416 23.3461 15.4508C23.3959 15.36 23.422 15.2581 23.422 15.1545C23.422 15.0509 23.3959 14.949 23.3461 14.8582C23.2963 14.7674 23.2244 14.6907 23.137 14.635V14.634Z" fill="#7D7D7D" stroke="#707070"/>
</svg>
