<svg width="29" height="29" viewBox="0 0 29 29" fill="none" xmlns="http://www.w3.org/2000/svg">
<path d="M9.27 23.387H5.4V10.887H9.27V23.387ZM9.656 6.911C9.656 6.46254 9.523 6.02416 9.27381 5.65131C9.02462 5.27847 8.67044 4.9879 8.25608 4.81637C7.84173 4.64485 7.38581 4.60007 6.946 4.68771C6.50619 4.77534 6.10225 4.99145 5.78529 5.3087C5.46832 5.62594 5.25257 6.03007 5.16532 6.46996C5.07807 6.90984 5.12325 7.36573 5.29514 7.77993C5.46703 8.19414 5.75791 8.54805 6.13098 8.79691C6.50405 9.04577 6.94255 9.1784 7.391 9.178C7.9919 9.17747 8.56801 8.93839 8.99272 8.5133C9.41743 8.08822 9.656 7.5119 9.656 6.911ZM23.756 16.511C23.756 13.157 23.047 10.669 19.129 10.669C18.4016 10.6268 17.6764 10.7833 17.0312 11.1217C16.3859 11.4601 15.8449 11.9676 15.466 12.59V10.89H11.706V23.39H15.466V17.19C15.466 15.565 15.88 13.99 17.894 13.99C19.88 13.99 19.945 15.848 19.945 17.29V23.39H23.76L23.756 16.511ZM28.732 24.989V3.317C28.7309 2.43743 28.381 1.5942 27.759 0.972343C27.1369 0.350486 26.2936 0.000793917 25.414 0L3.741 0C2.86143 0.000793917 2.0181 0.350486 1.39605 0.972343C0.774009 1.5942 0.424063 2.43743 0.423004 3.317L0.423004 24.99C0.424063 25.8694 0.773871 26.7125 1.3957 27.3343C2.01753 27.9561 2.86061 28.3059 3.74 28.307H25.414C26.2934 28.3059 27.1365 27.9561 27.7583 27.3343C28.3801 26.7125 28.7299 25.8694 28.731 24.99L28.732 24.989ZM25.414 2.212C25.5594 2.21174 25.7034 2.24011 25.8378 2.2955C25.9722 2.35089 26.0944 2.43221 26.1974 2.53482C26.3003 2.63743 26.3821 2.75931 26.438 2.89352C26.4938 3.02773 26.5227 3.17163 26.523 3.317V24.99C26.5234 25.1358 26.495 25.2802 26.4394 25.415C26.3838 25.5498 26.3022 25.6723 26.1991 25.7754C26.0961 25.8786 25.9737 25.9603 25.8389 26.016C25.7042 26.0717 25.5598 26.1003 25.414 26.1H3.741C3.59546 26.0999 3.45137 26.071 3.31699 26.0152C3.1826 25.9593 3.06055 25.8775 2.95782 25.7744C2.85509 25.6713 2.7737 25.5489 2.71831 25.4143C2.66292 25.2797 2.63461 25.1355 2.635 24.99V3.317C2.63553 3.02393 2.75226 2.74302 2.95959 2.53588C3.16692 2.32874 3.44793 2.21226 3.741 2.212H25.414Z" fill="#7D7D7D"/>
</svg>
