<svg width="29" height="29" viewBox="0 0 29 29" fill="none" xmlns="http://www.w3.org/2000/svg">
<path d="M24.99 0H3.317C2.4376 0.00105856 1.59452 0.350867 0.972696 0.972696C0.350867 1.59452 0.00105856 2.4376 0 3.317L0 24.99C0.00105856 25.8694 0.350867 26.7125 0.972696 27.3343C1.59452 27.9561 2.4376 28.3059 3.317 28.307H24.99C25.8694 28.3059 26.7125 27.9561 27.3343 27.3343C27.9561 26.7125 28.3059 25.8694 28.307 24.99V3.317C28.3059 2.4376 27.9561 1.59452 27.3343 0.972696C26.7125 0.350867 25.8694 0.00105856 24.99 0V0ZM26.1 24.99C26.1004 25.1359 26.072 25.2804 26.0163 25.4152C25.9607 25.5501 25.8789 25.6726 25.7758 25.7758C25.6726 25.8789 25.5501 25.9607 25.4152 26.0163C25.2804 26.072 25.1359 26.1004 24.99 26.1H18.69V17.084H22.1L22.664 13.656H18.688V11.279C18.6842 11.0602 18.7245 10.8428 18.8065 10.6399C18.8884 10.437 19.0104 10.2526 19.1651 10.0978C19.3198 9.94303 19.5041 9.82095 19.707 9.73886C19.9099 9.65676 20.1272 9.61634 20.346 9.62H22.613V6.192H20.346C19.677 6.19213 19.0146 6.32424 18.3967 6.58077C17.7789 6.8373 17.2177 7.21321 16.7453 7.68696C16.273 8.1607 15.8987 8.72299 15.644 9.3416C15.3893 9.96022 15.2592 10.623 15.261 11.292V13.66H11.942V17.088H15.261V26.1H3.317C3.17154 26.0997 3.02756 26.0708 2.89329 26.0149C2.75902 25.9589 2.63709 25.8771 2.53446 25.774C2.43184 25.6709 2.35054 25.5486 2.29521 25.4141C2.23988 25.2796 2.21161 25.1355 2.212 24.99V3.317C2.21253 3.0241 2.32912 2.74334 2.53623 2.53623C2.74334 2.32912 3.0241 2.21253 3.317 2.212H24.99C25.1355 2.21161 25.2796 2.23988 25.4141 2.29521C25.5486 2.35054 25.6709 2.43184 25.774 2.53446C25.8771 2.63709 25.9589 2.75902 26.0149 2.89329C26.0708 3.02756 26.0997 3.17154 26.1 3.317V24.99Z" fill="#7D7D7D"/>
</svg>
