<svg width="30" height="30" viewBox="0 0 30 30" fill="none" xmlns="http://www.w3.org/2000/svg">
<path d="M25.923 1H3.76902C2.95327 1.00106 2.17124 1.32558 1.59442 1.9024C1.0176 2.47922 0.693075 3.26125 0.692017 4.077L0.692017 26.231C0.693075 27.0467 1.0176 27.8288 1.59442 28.4056C2.17124 28.9824 2.95327 29.3069 3.76902 29.308H25.923C26.7388 29.3069 27.5208 28.9824 28.0976 28.4056C28.6744 27.8288 28.999 27.0467 29 26.231V4.077C28.999 3.26125 28.6744 2.47922 28.0976 1.9024C27.5208 1.32558 26.7388 1.00106 25.923 1V1ZM27.769 26.231C27.7682 26.7203 27.5735 27.1894 27.2275 27.5354C26.8814 27.8815 26.4124 28.0762 25.923 28.077H3.76902C3.27967 28.0762 2.81059 27.8815 2.46457 27.5354C2.11855 27.1894 1.92381 26.7203 1.92302 26.231V4.077C1.92381 3.58765 2.11855 3.11858 2.46457 2.77256C2.81059 2.42654 3.27967 2.23179 3.76902 2.231H25.923C26.4124 2.23179 26.8814 2.42654 27.2275 2.77256C27.5735 3.11858 27.7682 3.58765 27.769 4.077V26.231Z" fill="#7D7D7D" stroke="#707070"/>
<path d="M19.769 18.231H13V15.769H17.308C18.1241 15.769 18.9067 15.4448 19.4838 14.8678C20.0608 14.2907 20.385 13.5081 20.385 12.692C20.385 11.8759 20.0608 11.0933 19.4838 10.5162C18.9067 9.93918 18.1241 9.615 17.308 9.615H13V9C13 8.59592 12.9204 8.1958 12.7658 7.82248C12.6112 7.44916 12.3845 7.10995 12.0988 6.82423C11.8131 6.5385 11.4738 6.31185 11.1005 6.15722C10.7272 6.00259 10.3271 5.923 9.92301 5.923C9.51893 5.923 9.11881 6.00259 8.74549 6.15722C8.37217 6.31185 8.03296 6.5385 7.74724 6.82423C7.46151 7.10995 7.23486 7.44916 7.08023 7.82248C6.9256 8.1958 6.84601 8.59592 6.84601 9V18.846C6.84786 20.3142 7.43193 21.7217 8.4701 22.7599C9.50828 23.7981 10.9158 24.3821 12.384 24.384H19.769C20.1731 24.384 20.5732 24.3044 20.9465 24.1498C21.3198 23.9951 21.6591 23.7685 21.9448 23.4828C22.2305 23.197 22.4572 22.8578 22.6118 22.4845C22.7664 22.1112 22.846 21.7111 22.846 21.307C22.846 20.9029 22.7664 20.5028 22.6118 20.1295C22.4572 19.7562 22.2305 19.417 21.9448 19.1312C21.6591 18.8455 21.3198 18.6189 20.9465 18.4642C20.5732 18.3096 20.1731 18.23 19.769 18.23V18.231Z" fill="#7D7D7D" stroke="#707070"/>
</svg>
